<svg width="453" height="100" viewBox="0 0 453 100" fill="none" xmlns="http://www.w3.org/2000/svg">
<rect x="15" y="10" width="84" height="79" rx="8" fill="url(#paint0_linear_99_14)"/>
<circle cx="64.3877" cy="27.0978" r="9" transform="rotate(-15.6845 64.3877 27.0978)" fill="white"/>
<circle cx="36.0979" cy="55.8151" r="9" transform="rotate(-15.6845 36.0979 55.8151)" fill="white"/>
<circle cx="74.1646" cy="66.1678" r="9" transform="rotate(-15.6845 74.1646 66.1678)" fill="white"/>
<path d="M64.6961 26.0034L36.9176 54.7193L76.5209 67.9131L64.6961 26.0034Z" stroke="white" stroke-width="4"/>
<path d="M114.779 47H109.858L118.819 21.5455H124.511L133.485 47H128.563L121.765 26.7656H121.566L114.779 47ZM114.941 37.0195H128.364V40.7234H114.941V37.0195ZM136.639 54.1591V27.9091H141.064V31.0661H141.325C141.557 30.602 141.884 30.109 142.307 29.587C142.729 29.0567 143.301 28.6051 144.022 28.2322C144.743 27.8511 145.662 27.6605 146.781 27.6605C148.256 27.6605 149.586 28.0375 150.771 28.7915C151.964 29.5373 152.908 30.6435 153.604 32.1101C154.309 33.5684 154.661 35.3582 154.661 37.4794C154.661 39.5758 154.317 41.3572 153.629 42.8239C152.942 44.2905 152.005 45.4091 150.82 46.1797C149.636 46.9503 148.293 47.3356 146.793 47.3356C145.7 47.3356 144.792 47.1533 144.071 46.7887C143.351 46.4241 142.771 45.985 142.331 45.4712C141.901 44.9492 141.565 44.4562 141.325 43.9922H141.138V54.1591H136.639ZM141.051 37.4545C141.051 38.6892 141.225 39.7705 141.573 40.6985C141.93 41.6265 142.439 42.3516 143.102 42.8736C143.773 43.3873 144.585 43.6442 145.538 43.6442C146.532 43.6442 147.365 43.379 148.036 42.8487C148.707 42.3101 149.213 41.5768 149.553 40.6488C149.901 39.7125 150.075 38.6477 150.075 37.4545C150.075 36.2696 149.905 35.2173 149.565 34.2976C149.225 33.3778 148.72 32.657 148.049 32.1349C147.378 31.6129 146.541 31.3519 145.538 31.3519C144.577 31.3519 143.761 31.6046 143.09 32.1101C142.418 32.6155 141.909 33.324 141.561 34.2354C141.221 35.1469 141.051 36.2199 141.051 37.4545ZM158.514 47V27.9091H163.013V47H158.514ZM160.776 25.1996C160.063 25.1996 159.45 24.9634 158.937 24.4911C158.423 24.0105 158.166 23.4347 158.166 22.7635C158.166 22.084 158.423 21.5082 158.937 21.0359C159.45 20.5553 160.063 20.315 160.776 20.315C161.497 20.315 162.11 20.5553 162.616 21.0359C163.129 21.5082 163.386 22.084 163.386 22.7635C163.386 23.4347 163.129 24.0105 162.616 24.4911C162.11 24.9634 161.497 25.1996 160.776 25.1996ZM188.757 21.5455V47H184.655L172.661 29.6616H172.45V47H167.839V21.5455H171.965L183.947 38.8963H184.17V21.5455H188.757ZM202.034 47.3729C200.12 47.3729 198.467 46.9751 197.075 46.1797C195.691 45.3759 194.626 44.2408 193.881 42.7741C193.135 41.2992 192.762 39.5633 192.762 37.5664C192.762 35.6026 193.135 33.8791 193.881 32.396C194.635 30.9045 195.687 29.7444 197.038 28.9158C198.388 28.079 199.975 27.6605 201.798 27.6605C202.974 27.6605 204.085 27.8511 205.129 28.2322C206.181 28.6051 207.109 29.1851 207.913 29.9723C208.725 30.7595 209.363 31.7621 209.827 32.9801C210.291 34.1899 210.523 35.6316 210.523 37.3054V38.685H194.875V35.6523H206.21C206.202 34.7906 206.015 34.0241 205.651 33.353C205.286 32.6735 204.777 32.1391 204.122 31.7496C203.476 31.3602 202.722 31.1655 201.86 31.1655C200.94 31.1655 200.132 31.3892 199.436 31.8366C198.74 32.2758 198.198 32.8558 197.808 33.5767C197.427 34.2893 197.232 35.0723 197.224 35.9258V38.5732C197.224 39.6835 197.427 40.6364 197.833 41.4318C198.239 42.219 198.807 42.8239 199.536 43.2464C200.265 43.6607 201.118 43.8679 202.096 43.8679C202.751 43.8679 203.343 43.7768 203.873 43.5945C204.404 43.4039 204.864 43.1263 205.253 42.7617C205.643 42.3971 205.937 41.9455 206.136 41.407L210.337 41.8793C210.071 42.9896 209.566 43.959 208.82 44.7876C208.083 45.608 207.138 46.246 205.986 46.7017C204.835 47.1491 203.517 47.3729 202.034 47.3729ZM217.598 27.9091L221.451 34.9563L225.366 27.9091H230.127L224.372 37.4545L230.226 47H225.491L221.451 40.1268L217.449 47H212.676L218.493 37.4545L212.825 27.9091H217.598ZM245.775 38.9709V27.9091H250.274V47H245.911V43.6069H245.713C245.282 44.6758 244.573 45.55 243.587 46.2294C242.609 46.9089 241.404 47.2486 239.97 47.2486C238.719 47.2486 237.613 46.971 236.652 46.4158C235.699 45.8524 234.953 45.0362 234.415 43.9673C233.876 42.8902 233.607 41.5893 233.607 40.0646V27.9091H238.106V39.3686C238.106 40.5784 238.437 41.5395 239.1 42.2521C239.763 42.9647 240.633 43.321 241.71 43.321C242.373 43.321 243.015 43.1594 243.637 42.8363C244.258 42.5131 244.768 42.0326 245.166 41.3945C245.572 40.7482 245.775 39.9403 245.775 38.9709ZM269.989 32.9553L265.888 33.4027C265.772 32.9884 265.569 32.599 265.279 32.2344C264.997 31.8698 264.616 31.5756 264.135 31.3519C263.655 31.1282 263.066 31.0163 262.37 31.0163C261.434 31.0163 260.647 31.2193 260.009 31.6254C259.379 32.0314 259.069 32.5575 259.077 33.2038C259.069 33.759 259.272 34.2106 259.686 34.5586C260.108 34.9066 260.804 35.1925 261.774 35.4162L265.03 36.1122C266.837 36.5017 268.179 37.119 269.057 37.9641C269.944 38.8093 270.391 39.9155 270.4 41.2827C270.391 42.4841 270.039 43.5447 269.343 44.4645C268.655 45.3759 267.698 46.0885 266.472 46.6023C265.246 47.116 263.837 47.3729 262.246 47.3729C259.91 47.3729 258.029 46.884 256.603 45.9062C255.178 44.9202 254.329 43.5489 254.055 41.7923L258.443 41.3697C258.642 42.2314 259.064 42.8819 259.711 43.321C260.357 43.7602 261.198 43.9798 262.234 43.9798C263.303 43.9798 264.16 43.7602 264.807 43.321C265.461 42.8819 265.788 42.3391 265.788 41.6928C265.788 41.146 265.577 40.6944 265.155 40.3381C264.74 39.9818 264.094 39.7083 263.216 39.5178L259.959 38.8342C258.128 38.453 256.773 37.8108 255.895 36.9077C255.017 35.9962 254.582 34.8445 254.59 33.4524C254.582 32.2758 254.901 31.2566 255.547 30.3949C256.202 29.5249 257.109 28.8537 258.269 28.3814C259.437 27.9008 260.784 27.6605 262.308 27.6605C264.546 27.6605 266.306 28.137 267.591 29.0898C268.883 30.0427 269.683 31.3312 269.989 32.9553Z" fill="white"/>
<path d="M123.432 69.7273C123.432 71.2945 123.138 72.6368 122.551 73.7543C121.969 74.867 121.173 75.7192 120.165 76.3111C119.161 76.9029 118.022 77.1989 116.749 77.1989C115.475 77.1989 114.334 76.9029 113.325 76.3111C112.321 75.7145 111.526 74.8598 110.939 73.7472C110.357 72.6297 110.065 71.2898 110.065 69.7273C110.065 68.16 110.357 66.8201 110.939 65.7074C111.526 64.59 112.321 63.7353 113.325 63.1435C114.334 62.5516 115.475 62.2557 116.749 62.2557C118.022 62.2557 119.161 62.5516 120.165 63.1435C121.173 63.7353 121.969 64.59 122.551 65.7074C123.138 66.8201 123.432 68.16 123.432 69.7273ZM120.783 69.7273C120.783 68.6241 120.61 67.6937 120.264 66.9361C119.923 66.1738 119.45 65.5985 118.844 65.2102C118.238 64.8172 117.539 64.6207 116.749 64.6207C115.958 64.6207 115.259 64.8172 114.653 65.2102C114.047 65.5985 113.571 66.1738 113.226 66.9361C112.885 67.6937 112.714 68.6241 112.714 69.7273C112.714 70.8305 112.885 71.7633 113.226 72.5256C113.571 73.2831 114.047 73.8584 114.653 74.2514C115.259 74.6397 115.958 74.8338 116.749 74.8338C117.539 74.8338 118.238 74.6397 118.844 74.2514C119.45 73.8584 119.923 73.2831 120.264 72.5256C120.61 71.7633 120.783 70.8305 120.783 69.7273ZM128.38 70.608V77H125.809V66.0909H128.267V67.9446H128.395C128.645 67.3338 129.046 66.8485 129.595 66.4886C130.149 66.1288 130.833 65.9489 131.647 65.9489C132.4 65.9489 133.056 66.1098 133.615 66.4318C134.178 66.7538 134.614 67.2202 134.922 67.831C135.234 68.4418 135.388 69.1828 135.383 70.054V77H132.812V70.4517C132.812 69.7225 132.623 69.152 132.244 68.7401C131.87 68.3281 131.351 68.1222 130.689 68.1222C130.239 68.1222 129.839 68.2216 129.488 68.4205C129.143 68.6146 128.87 68.8963 128.672 69.2656C128.477 69.6349 128.38 70.0824 128.38 70.608ZM142.826 77.2131C141.733 77.2131 140.788 76.9858 139.993 76.5312C139.202 76.072 138.593 75.4233 138.167 74.5852C137.741 73.7424 137.528 72.7505 137.528 71.6094C137.528 70.4872 137.741 69.5024 138.167 68.6548C138.598 67.8026 139.199 67.1397 139.971 66.6662C140.743 66.188 141.65 65.9489 142.691 65.9489C143.364 65.9489 143.998 66.0578 144.595 66.2756C145.196 66.4886 145.726 66.8201 146.186 67.2699C146.65 67.7197 147.014 68.2926 147.279 68.9886C147.545 69.6799 147.677 70.5038 147.677 71.4602V72.2486H138.735V70.5156H145.213C145.208 70.0232 145.101 69.5852 144.893 69.2017C144.685 68.8134 144.394 68.508 144.02 68.2855C143.65 68.063 143.219 67.9517 142.727 67.9517C142.201 67.9517 141.74 68.0795 141.342 68.3352C140.944 68.5862 140.634 68.9176 140.412 69.3295C140.194 69.7367 140.083 70.1842 140.078 70.6719V72.1847C140.078 72.8191 140.194 73.3636 140.426 73.8182C140.658 74.268 140.982 74.6136 141.399 74.8551C141.815 75.0919 142.303 75.2102 142.862 75.2102C143.236 75.2102 143.574 75.1581 143.877 75.054C144.181 74.9451 144.443 74.7865 144.666 74.5781C144.888 74.3698 145.056 74.1117 145.17 73.804L147.571 74.0739C147.419 74.7083 147.13 75.2623 146.704 75.7358C146.283 76.2045 145.743 76.5691 145.085 76.8295C144.427 77.0852 143.674 77.2131 142.826 77.2131ZM154.927 77V62.4545H160.381C161.499 62.4545 162.436 62.6629 163.194 63.0795C163.956 63.4962 164.531 64.0691 164.92 64.7983C165.313 65.5227 165.509 66.3466 165.509 67.2699C165.509 68.2027 165.313 69.0312 164.92 69.7557C164.527 70.4801 163.947 71.0507 163.18 71.4673C162.413 71.8793 161.468 72.0852 160.346 72.0852H156.731V69.919H159.991C160.644 69.919 161.179 69.8054 161.596 69.5781C162.013 69.3509 162.32 69.0384 162.519 68.6406C162.723 68.2429 162.825 67.786 162.825 67.2699C162.825 66.7538 162.723 66.2992 162.519 65.9062C162.32 65.5133 162.01 65.2079 161.589 64.9901C161.172 64.7675 160.635 64.6562 159.977 64.6562H157.562V77H154.927ZM170.255 62.4545V77H167.684V62.4545H170.255ZM176.038 77.2202C175.347 77.2202 174.724 77.0971 174.17 76.8509C173.621 76.5999 173.186 76.2306 172.864 75.7429C172.546 75.2552 172.388 74.6539 172.388 73.9389C172.388 73.3234 172.501 72.8144 172.729 72.4119C172.956 72.0095 173.266 71.6875 173.659 71.446C174.052 71.2045 174.495 71.0223 174.987 70.8991C175.484 70.7713 175.998 70.679 176.528 70.6222C177.168 70.5559 177.686 70.4967 178.084 70.4446C178.482 70.3878 178.77 70.3026 178.95 70.1889C179.135 70.0705 179.227 69.8883 179.227 69.642V69.5994C179.227 69.0644 179.069 68.6501 178.751 68.3565C178.434 68.063 177.977 67.9162 177.381 67.9162C176.751 67.9162 176.251 68.0535 175.882 68.3281C175.518 68.6027 175.271 68.9271 175.143 69.3011L172.743 68.9602C172.932 68.2973 173.245 67.7434 173.68 67.2983C174.116 66.8485 174.649 66.5123 175.278 66.2898C175.908 66.0625 176.604 65.9489 177.366 65.9489C177.892 65.9489 178.415 66.0104 178.936 66.1335C179.457 66.2566 179.933 66.4602 180.364 66.7443C180.795 67.0237 181.14 67.4048 181.401 67.8878C181.666 68.3707 181.798 68.9744 181.798 69.6989V77H179.327V75.5014H179.241C179.085 75.8045 178.865 76.0885 178.581 76.3537C178.302 76.6141 177.949 76.8248 177.523 76.9858C177.101 77.142 176.607 77.2202 176.038 77.2202ZM176.706 75.331C177.222 75.331 177.67 75.2292 178.048 75.0256C178.427 74.8172 178.718 74.5426 178.922 74.2017C179.13 73.8608 179.234 73.4891 179.234 73.0866V71.8011C179.154 71.8674 179.017 71.929 178.822 71.9858C178.633 72.0426 178.42 72.0923 178.183 72.1349C177.946 72.1776 177.712 72.2154 177.48 72.2486C177.248 72.2817 177.047 72.3101 176.876 72.3338C176.493 72.3859 176.15 72.4711 175.847 72.5895C175.544 72.7079 175.304 72.8736 175.129 73.0866C174.954 73.295 174.866 73.5649 174.866 73.8963C174.866 74.3698 175.039 74.7273 175.385 74.9688C175.731 75.2102 176.171 75.331 176.706 75.331ZM189.831 66.0909V68.0795H183.56V66.0909H189.831ZM185.108 63.4773H187.679V73.7188C187.679 74.0644 187.731 74.3295 187.835 74.5142C187.944 74.6941 188.086 74.8172 188.261 74.8835C188.437 74.9498 188.631 74.983 188.844 74.983C189.005 74.983 189.152 74.9711 189.284 74.9474C189.421 74.9238 189.526 74.9025 189.597 74.8835L190.03 76.8935C189.893 76.9408 189.696 76.9929 189.44 77.0497C189.189 77.1065 188.882 77.1397 188.517 77.1491C187.873 77.1681 187.293 77.071 186.777 76.858C186.261 76.6402 185.851 76.304 185.548 75.8494C185.25 75.3949 185.103 74.8267 185.108 74.1449V63.4773ZM197.507 66.0909V68.0795H191.058V66.0909H197.507ZM192.67 77V65.0611C192.67 64.3272 192.822 63.7164 193.125 63.2287C193.432 62.741 193.844 62.3764 194.36 62.1349C194.877 61.8935 195.449 61.7727 196.079 61.7727C196.524 61.7727 196.92 61.8082 197.265 61.8793C197.611 61.9503 197.867 62.0142 198.032 62.071L197.521 64.0597C197.412 64.0265 197.275 63.9934 197.109 63.9602C196.943 63.9223 196.759 63.9034 196.555 63.9034C196.077 63.9034 195.738 64.0194 195.539 64.2514C195.345 64.4787 195.248 64.8054 195.248 65.2315V77H192.67ZM203.869 77.2131C202.803 77.2131 201.88 76.9787 201.099 76.5099C200.317 76.0412 199.711 75.3854 199.281 74.5426C198.854 73.6998 198.641 72.715 198.641 71.5881C198.641 70.4612 198.854 69.474 199.281 68.6264C199.711 67.7789 200.317 67.1207 201.099 66.652C201.88 66.1832 202.803 65.9489 203.869 65.9489C204.934 65.9489 205.857 66.1832 206.638 66.652C207.42 67.1207 208.023 67.7789 208.45 68.6264C208.88 69.474 209.096 70.4612 209.096 71.5881C209.096 72.715 208.88 73.6998 208.45 74.5426C208.023 75.3854 207.42 76.0412 206.638 76.5099C205.857 76.9787 204.934 77.2131 203.869 77.2131ZM203.883 75.1534C204.46 75.1534 204.943 74.9948 205.332 74.6776C205.72 74.3556 206.009 73.9247 206.198 73.3849C206.392 72.8452 206.489 72.2438 206.489 71.581C206.489 70.9134 206.392 70.3097 206.198 69.7699C206.009 69.2254 205.72 68.7921 205.332 68.4702C204.943 68.1482 204.46 67.9872 203.883 67.9872C203.291 67.9872 202.799 68.1482 202.406 68.4702C202.017 68.7921 201.726 69.2254 201.532 69.7699C201.343 70.3097 201.248 70.9134 201.248 71.581C201.248 72.2438 201.343 72.8452 201.532 73.3849C201.726 73.9247 202.017 74.3556 202.406 74.6776C202.799 74.9948 203.291 75.1534 203.883 75.1534ZM211.278 77V66.0909H213.771V67.9091H213.885C214.083 67.2794 214.424 66.794 214.907 66.4531C215.395 66.1075 215.951 65.9347 216.576 65.9347C216.718 65.9347 216.877 65.9418 217.052 65.956C217.232 65.9654 217.381 65.982 217.5 66.0057V68.3707C217.391 68.3329 217.218 68.2997 216.981 68.2713C216.749 68.2382 216.524 68.2216 216.306 68.2216C215.838 68.2216 215.416 68.3234 215.042 68.527C214.673 68.7259 214.382 69.0028 214.169 69.358C213.956 69.7131 213.849 70.1226 213.849 70.5866V77H211.278ZM219.208 77V66.0909H221.665V67.9446H221.793C222.02 67.3196 222.397 66.8319 222.922 66.4815C223.448 66.1264 224.075 65.9489 224.804 65.9489C225.543 65.9489 226.166 66.1288 226.672 66.4886C227.184 66.8437 227.543 67.3291 227.752 67.9446H227.865C228.107 67.3385 228.514 66.8556 229.087 66.4957C229.665 66.1312 230.349 65.9489 231.14 65.9489C232.143 65.9489 232.962 66.2661 233.597 66.9006C234.231 67.535 234.549 68.4607 234.549 69.6776V77H231.971V70.0753C231.971 69.3982 231.791 68.9034 231.431 68.5909C231.071 68.2737 230.631 68.1151 230.11 68.1151C229.489 68.1151 229.004 68.3092 228.654 68.6974C228.308 69.081 228.135 69.5805 228.135 70.196V77H225.614V69.9688C225.614 69.4053 225.444 68.9555 225.103 68.6193C224.766 68.2831 224.326 68.1151 223.782 68.1151C223.412 68.1151 223.076 68.2098 222.773 68.3991C222.47 68.5838 222.229 68.8466 222.049 69.1875C221.869 69.5237 221.779 69.9167 221.779 70.3665V77H219.208ZM238.741 77.1562C238.31 77.1562 237.941 77.0047 237.633 76.7017C237.325 76.3987 237.174 76.0294 237.178 75.5938C237.174 75.1676 237.325 74.803 237.633 74.5C237.941 74.197 238.31 74.0455 238.741 74.0455C239.157 74.0455 239.52 74.197 239.827 74.5C240.14 74.803 240.299 75.1676 240.303 75.5938C240.299 75.8826 240.223 76.1454 240.076 76.3821C239.934 76.6188 239.745 76.8082 239.508 76.9503C239.276 77.0876 239.02 77.1562 238.741 77.1562ZM250.218 62.4545V77H247.583V62.4545H250.218ZM255.529 70.608V77H252.958V66.0909H255.415V67.9446H255.543C255.794 67.3338 256.194 66.8485 256.743 66.4886C257.297 66.1288 257.981 65.9489 258.796 65.9489C259.549 65.9489 260.204 66.1098 260.763 66.4318C261.327 66.7538 261.762 67.2202 262.07 67.831C262.382 68.4418 262.536 69.1828 262.532 70.054V77H259.961V70.4517C259.961 69.7225 259.771 69.152 259.392 68.7401C259.018 68.3281 258.5 68.1222 257.837 68.1222C257.387 68.1222 256.987 68.2216 256.637 68.4205C256.291 68.6146 256.019 68.8963 255.82 69.2656C255.626 69.6349 255.529 70.0824 255.529 70.608ZM270.671 66.0909V68.0795H264.222V66.0909H270.671ZM265.834 77V65.0611C265.834 64.3272 265.986 63.7164 266.289 63.2287C266.596 62.741 267.008 62.3764 267.525 62.1349C268.041 61.8935 268.614 61.7727 269.243 61.7727C269.688 61.7727 270.084 61.8082 270.429 61.8793C270.775 61.9503 271.031 62.0142 271.196 62.071L270.685 64.0597C270.576 64.0265 270.439 63.9934 270.273 63.9602C270.107 63.9223 269.923 63.9034 269.719 63.9034C269.241 63.9034 268.902 64.0194 268.703 64.2514C268.509 64.4787 268.412 64.8054 268.412 65.2315V77H265.834ZM272.684 77V66.0909H275.255V77H272.684ZM273.977 64.5426C273.57 64.5426 273.219 64.4077 272.926 64.1378C272.632 63.8632 272.485 63.5341 272.485 63.1506C272.485 62.7623 272.632 62.4332 272.926 62.1634C273.219 61.8887 273.57 61.7514 273.977 61.7514C274.389 61.7514 274.739 61.8887 275.028 62.1634C275.322 62.4332 275.468 62.7623 275.468 63.1506C275.468 63.5341 275.322 63.8632 275.028 64.1378C274.739 64.4077 274.389 64.5426 273.977 64.5426ZM280.47 70.608V77H277.899V66.0909H280.357V67.9446H280.484C280.735 67.3338 281.135 66.8485 281.685 66.4886C282.239 66.1288 282.923 65.9489 283.737 65.9489C284.49 65.9489 285.146 66.1098 285.705 66.4318C286.268 66.7538 286.704 67.2202 287.011 67.831C287.324 68.4418 287.478 69.1828 287.473 70.054V77H284.902V70.4517C284.902 69.7225 284.713 69.152 284.334 68.7401C283.96 68.3281 283.441 68.1222 282.778 68.1222C282.329 68.1222 281.929 68.2216 281.578 68.4205C281.232 68.6146 280.96 68.8963 280.761 69.2656C280.567 69.6349 280.47 70.0824 280.47 70.608ZM290.087 77V66.0909H292.658V77H290.087ZM291.379 64.5426C290.972 64.5426 290.622 64.4077 290.328 64.1378C290.035 63.8632 289.888 63.5341 289.888 63.1506C289.888 62.7623 290.035 62.4332 290.328 62.1634C290.622 61.8887 290.972 61.7514 291.379 61.7514C291.791 61.7514 292.142 61.8887 292.43 62.1634C292.724 62.4332 292.871 62.7623 292.871 63.1506C292.871 63.5341 292.724 63.8632 292.43 64.1378C292.142 64.4077 291.791 64.5426 291.379 64.5426ZM300.749 66.0909V68.0795H294.478V66.0909H300.749ZM296.026 63.4773H298.597V73.7188C298.597 74.0644 298.649 74.3295 298.753 74.5142C298.862 74.6941 299.004 74.8172 299.179 74.8835C299.355 74.9498 299.549 74.983 299.762 74.983C299.923 74.983 300.069 74.9711 300.202 74.9474C300.339 74.9238 300.444 74.9025 300.515 74.8835L300.948 76.8935C300.81 76.9408 300.614 76.9929 300.358 77.0497C300.107 77.1065 299.8 77.1397 299.435 77.1491C298.791 77.1681 298.211 77.071 297.695 76.858C297.179 76.6402 296.769 76.304 296.466 75.8494C296.168 75.3949 296.021 74.8267 296.026 74.1449V63.4773ZM307.612 77.2131C306.518 77.2131 305.573 76.9858 304.778 76.5312C303.987 76.072 303.379 75.4233 302.952 74.5852C302.526 73.7424 302.313 72.7505 302.313 71.6094C302.313 70.4872 302.526 69.5024 302.952 68.6548C303.383 67.8026 303.985 67.1397 304.756 66.6662C305.528 66.188 306.435 65.9489 307.477 65.9489C308.149 65.9489 308.783 66.0578 309.38 66.2756C309.981 66.4886 310.512 66.8201 310.971 67.2699C311.435 67.7197 311.799 68.2926 312.065 68.9886C312.33 69.6799 312.462 70.5038 312.462 71.4602V72.2486H303.521V70.5156H309.998C309.993 70.0232 309.887 69.5852 309.678 69.2017C309.47 68.8134 309.179 68.508 308.805 68.2855C308.435 68.063 308.004 67.9517 307.512 67.9517C306.987 67.9517 306.525 68.0795 306.127 68.3352C305.729 68.5862 305.419 68.9176 305.197 69.3295C304.979 69.7367 304.868 70.1842 304.863 70.6719V72.1847C304.863 72.8191 304.979 73.3636 305.211 73.8182C305.443 74.268 305.767 74.6136 306.184 74.8551C306.601 75.0919 307.088 75.2102 307.647 75.2102C308.021 75.2102 308.36 75.1581 308.663 75.054C308.966 74.9451 309.228 74.7865 309.451 74.5781C309.674 74.3698 309.842 74.1117 309.955 73.804L312.356 74.0739C312.204 74.7083 311.915 75.2623 311.489 75.7358C311.068 76.2045 310.528 76.5691 309.87 76.8295C309.212 77.0852 308.459 77.2131 307.612 77.2131ZM322.347 62.4545V77H319.712V62.4545H322.347ZM327.658 70.608V77H325.087V66.0909H327.544V67.9446H327.672C327.923 67.3338 328.323 66.8485 328.872 66.4886C329.426 66.1288 330.11 65.9489 330.925 65.9489C331.678 65.9489 332.333 66.1098 332.892 66.4318C333.455 66.7538 333.891 67.2202 334.199 67.831C334.511 68.4418 334.665 69.1828 334.661 70.054V77H332.089V70.4517C332.089 69.7225 331.9 69.152 331.521 68.7401C331.147 68.3281 330.629 68.1222 329.966 68.1222C329.516 68.1222 329.116 68.2216 328.766 68.4205C328.42 68.6146 328.148 68.8963 327.949 69.2656C327.755 69.6349 327.658 70.0824 327.658 70.608ZM342.722 66.0909V68.0795H336.45V66.0909H342.722ZM337.999 63.4773H340.57V73.7188C340.57 74.0644 340.622 74.3295 340.726 74.5142C340.835 74.6941 340.977 74.8172 341.152 74.8835C341.327 74.9498 341.521 74.983 341.734 74.983C341.895 74.983 342.042 74.9711 342.175 74.9474C342.312 74.9238 342.416 74.9025 342.487 74.8835L342.92 76.8935C342.783 76.9408 342.587 76.9929 342.331 77.0497C342.08 77.1065 341.772 77.1397 341.408 77.1491C340.764 77.1681 340.184 77.071 339.668 76.858C339.152 76.6402 338.742 76.304 338.439 75.8494C338.141 75.3949 337.994 74.8267 337.999 74.1449V63.4773ZM349.584 77.2131C348.49 77.2131 347.546 76.9858 346.75 76.5312C345.96 76.072 345.351 75.4233 344.925 74.5852C344.499 73.7424 344.286 72.7505 344.286 71.6094C344.286 70.4872 344.499 69.5024 344.925 68.6548C345.356 67.8026 345.957 67.1397 346.729 66.6662C347.501 66.188 348.408 65.9489 349.449 65.9489C350.122 65.9489 350.756 66.0578 351.353 66.2756C351.954 66.4886 352.484 66.8201 352.944 67.2699C353.408 67.7197 353.772 68.2926 354.037 68.9886C354.302 69.6799 354.435 70.5038 354.435 71.4602V72.2486H345.493V70.5156H351.971C351.966 70.0232 351.859 69.5852 351.651 69.2017C351.443 68.8134 351.151 68.508 350.777 68.2855C350.408 68.063 349.977 67.9517 349.485 67.9517C348.959 67.9517 348.498 68.0795 348.1 68.3352C347.702 68.5862 347.392 68.9176 347.169 69.3295C346.952 69.7367 346.84 70.1842 346.836 70.6719V72.1847C346.836 72.8191 346.952 73.3636 347.184 73.8182C347.416 74.268 347.74 74.6136 348.157 74.8551C348.573 75.0919 349.061 75.2102 349.62 75.2102C349.994 75.2102 350.332 75.1581 350.635 75.054C350.938 74.9451 351.201 74.7865 351.424 74.5781C351.646 74.3698 351.814 74.1117 351.928 73.804L354.328 74.0739C354.177 74.7083 353.888 75.2623 353.462 75.7358C353.041 76.2045 352.501 76.5691 351.843 76.8295C351.185 77.0852 350.432 77.2131 349.584 77.2131ZM361.354 81.3182C360.431 81.3182 359.638 81.1927 358.975 80.9418C358.312 80.6955 357.78 80.3641 357.377 79.9474C356.975 79.5308 356.695 79.0691 356.539 78.5625L358.854 78.0014C358.959 78.2145 359.11 78.4252 359.309 78.6335C359.508 78.8466 359.775 79.0218 360.112 79.1591C360.452 79.3011 360.881 79.3722 361.397 79.3722C362.126 79.3722 362.73 79.1946 363.208 78.8395C363.686 78.4891 363.925 77.9115 363.925 77.1065V75.0398H363.798C363.665 75.3049 363.471 75.5772 363.215 75.8565C362.964 76.1359 362.63 76.3703 362.214 76.5597C361.802 76.7491 361.283 76.8438 360.658 76.8438C359.82 76.8438 359.06 76.6473 358.379 76.2543C357.701 75.8565 357.162 75.2647 356.759 74.4787C356.362 73.688 356.163 72.6984 356.163 71.5099C356.163 70.312 356.362 69.3011 356.759 68.4773C357.162 67.6487 357.704 67.0213 358.386 66.5952C359.067 66.1643 359.827 65.9489 360.665 65.9489C361.305 65.9489 361.83 66.0578 362.242 66.2756C362.659 66.4886 362.99 66.7467 363.237 67.0497C363.483 67.348 363.67 67.6297 363.798 67.8949H363.94V66.0909H366.475V77.1776C366.475 78.1103 366.253 78.8821 365.808 79.4929C365.362 80.1037 364.754 80.5606 363.982 80.8636C363.21 81.1667 362.335 81.3182 361.354 81.3182ZM361.376 74.8267C361.92 74.8267 362.384 74.6941 362.768 74.429C363.151 74.1638 363.442 73.7827 363.641 73.2855C363.84 72.7884 363.94 72.1918 363.94 71.4957C363.94 70.8092 363.84 70.2079 363.641 69.6918C363.447 69.1757 363.158 68.7756 362.775 68.4915C362.396 68.2027 361.93 68.0582 361.376 68.0582C360.803 68.0582 360.325 68.2074 359.941 68.5057C359.558 68.804 359.269 69.2135 359.075 69.7344C358.88 70.2505 358.783 70.8376 358.783 71.4957C358.783 72.1634 358.88 72.7481 359.075 73.25C359.273 73.7472 359.565 74.1354 359.948 74.4148C360.336 74.6894 360.812 74.8267 361.376 74.8267ZM369.11 77V66.0909H371.603V67.9091H371.717C371.915 67.2794 372.256 66.794 372.739 66.4531C373.227 66.1075 373.783 65.9347 374.408 65.9347C374.55 65.9347 374.709 65.9418 374.884 65.956C375.064 65.9654 375.213 65.982 375.332 66.0057V68.3707C375.223 68.3329 375.05 68.2997 374.813 68.2713C374.581 68.2382 374.356 68.2216 374.138 68.2216C373.67 68.2216 373.248 68.3234 372.874 68.527C372.505 68.7259 372.214 69.0028 372.001 69.358C371.788 69.7131 371.681 70.1226 371.681 70.5866V77H369.11ZM379.984 77.2202C379.292 77.2202 378.67 77.0971 378.116 76.8509C377.567 76.5999 377.131 76.2306 376.809 75.7429C376.492 75.2552 376.333 74.6539 376.333 73.9389C376.333 73.3234 376.447 72.8144 376.674 72.4119C376.901 72.0095 377.211 71.6875 377.604 71.446C377.997 71.2045 378.44 71.0223 378.933 70.8991C379.43 70.7713 379.943 70.679 380.474 70.6222C381.113 70.5559 381.631 70.4967 382.029 70.4446C382.427 70.3878 382.716 70.3026 382.896 70.1889C383.08 70.0705 383.173 69.8883 383.173 69.642V69.5994C383.173 69.0644 383.014 68.6501 382.697 68.3565C382.379 68.063 381.923 67.9162 381.326 67.9162C380.696 67.9162 380.197 68.0535 379.827 68.3281C379.463 68.6027 379.217 68.9271 379.089 69.3011L376.688 68.9602C376.878 68.2973 377.19 67.7434 377.626 67.2983C378.061 66.8485 378.594 66.5123 379.224 66.2898C379.853 66.0625 380.549 65.9489 381.312 65.9489C381.837 65.9489 382.361 66.0104 382.881 66.1335C383.402 66.2566 383.878 66.4602 384.309 66.7443C384.74 67.0237 385.085 67.4048 385.346 67.8878C385.611 68.3707 385.744 68.9744 385.744 69.6989V77H383.272V75.5014H383.187C383.031 75.8045 382.81 76.0885 382.526 76.3537C382.247 76.6141 381.894 76.8248 381.468 76.9858C381.047 77.142 380.552 77.2202 379.984 77.2202ZM380.651 75.331C381.167 75.331 381.615 75.2292 381.994 75.0256C382.372 74.8172 382.664 74.5426 382.867 74.2017C383.076 73.8608 383.18 73.4891 383.18 73.0866V71.8011C383.099 71.8674 382.962 71.929 382.768 71.9858C382.578 72.0426 382.365 72.0923 382.129 72.1349C381.892 72.1776 381.657 72.2154 381.425 72.2486C381.193 72.2817 380.992 72.3101 380.822 72.3338C380.438 72.3859 380.095 72.4711 379.792 72.5895C379.489 72.7079 379.25 72.8736 379.075 73.0866C378.899 73.295 378.812 73.5649 378.812 73.8963C378.812 74.3698 378.985 74.7273 379.33 74.9688C379.676 75.2102 380.116 75.331 380.651 75.331ZM393.776 66.0909V68.0795H387.505V66.0909H393.776ZM389.053 63.4773H391.624V73.7188C391.624 74.0644 391.676 74.3295 391.781 74.5142C391.889 74.6941 392.031 74.8172 392.207 74.8835C392.382 74.9498 392.576 74.983 392.789 74.983C392.95 74.983 393.097 74.9711 393.229 74.9474C393.367 74.9238 393.471 74.9025 393.542 74.8835L393.975 76.8935C393.838 76.9408 393.641 76.9929 393.386 77.0497C393.135 77.1065 392.827 77.1397 392.462 77.1491C391.818 77.1681 391.238 77.071 390.722 76.858C390.206 76.6402 389.797 76.304 389.494 75.8494C389.195 75.3949 389.049 74.8267 389.053 74.1449V63.4773ZM395.926 77V66.0909H398.498V77H395.926ZM397.219 64.5426C396.812 64.5426 396.462 64.4077 396.168 64.1378C395.874 63.8632 395.728 63.5341 395.728 63.1506C395.728 62.7623 395.874 62.4332 396.168 62.1634C396.462 61.8887 396.812 61.7514 397.219 61.7514C397.631 61.7514 397.981 61.8887 398.27 62.1634C398.564 62.4332 398.711 62.7623 398.711 63.1506C398.711 63.5341 398.564 63.8632 398.27 64.1378C397.981 64.4077 397.631 64.5426 397.219 64.5426ZM405.9 77.2131C404.835 77.2131 403.911 76.9787 403.13 76.5099C402.349 76.0412 401.743 75.3854 401.312 74.5426C400.886 73.6998 400.673 72.715 400.673 71.5881C400.673 70.4612 400.886 69.474 401.312 68.6264C401.743 67.7789 402.349 67.1207 403.13 66.652C403.911 66.1832 404.835 65.9489 405.9 65.9489C406.965 65.9489 407.888 66.1832 408.67 66.652C409.451 67.1207 410.055 67.7789 410.481 68.6264C410.912 69.474 411.127 70.4612 411.127 71.5881C411.127 72.715 410.912 73.6998 410.481 74.5426C410.055 75.3854 409.451 76.0412 408.67 76.5099C407.888 76.9787 406.965 77.2131 405.9 77.2131ZM405.914 75.1534C406.492 75.1534 406.975 74.9948 407.363 74.6776C407.751 74.3556 408.04 73.9247 408.229 73.3849C408.424 72.8452 408.521 72.2438 408.521 71.581C408.521 70.9134 408.424 70.3097 408.229 69.7699C408.04 69.2254 407.751 68.7921 407.363 68.4702C406.975 68.1482 406.492 67.9872 405.914 67.9872C405.322 67.9872 404.83 68.1482 404.437 68.4702C404.049 68.7921 403.757 69.2254 403.563 69.7699C403.374 70.3097 403.279 70.9134 403.279 71.581C403.279 72.2438 403.374 72.8452 403.563 73.3849C403.757 73.9247 404.049 74.3556 404.437 74.6776C404.83 74.9948 405.322 75.1534 405.914 75.1534ZM415.88 70.608V77H413.309V66.0909H415.767V67.9446H415.895C416.145 67.3338 416.546 66.8485 417.095 66.4886C417.649 66.1288 418.333 65.9489 419.147 65.9489C419.9 65.9489 420.556 66.1098 421.115 66.4318C421.678 66.7538 422.114 67.2202 422.422 67.831C422.734 68.4418 422.888 69.1828 422.883 70.054V77H420.312V70.4517C420.312 69.7225 420.123 69.152 419.744 68.7401C419.37 68.3281 418.851 68.1222 418.189 68.1222C417.739 68.1222 417.339 68.2216 416.988 68.4205C416.643 68.6146 416.37 68.8963 416.172 69.2656C415.977 69.6349 415.88 70.0824 415.88 70.608ZM434.119 68.9744L431.775 69.2301C431.709 68.9934 431.593 68.7708 431.427 68.5625C431.266 68.3542 431.048 68.1861 430.774 68.0582C430.499 67.9304 430.163 67.8665 429.765 67.8665C429.23 67.8665 428.78 67.9825 428.416 68.2145C428.056 68.4465 427.878 68.7472 427.883 69.1165C427.878 69.4337 427.994 69.6918 428.231 69.8906C428.473 70.0895 428.87 70.2528 429.424 70.3807L431.285 70.7784C432.317 71.0009 433.084 71.3537 433.586 71.8366C434.093 72.3196 434.349 72.9517 434.353 73.733C434.349 74.4195 434.147 75.0256 433.75 75.5511C433.357 76.072 432.81 76.4792 432.109 76.7727C431.408 77.0663 430.603 77.2131 429.694 77.2131C428.359 77.2131 427.284 76.9337 426.47 76.375C425.655 75.8116 425.17 75.0279 425.014 74.0241L427.521 73.7827C427.635 74.2751 427.876 74.6468 428.245 74.8977C428.615 75.1487 429.095 75.2741 429.687 75.2741C430.298 75.2741 430.788 75.1487 431.157 74.8977C431.531 74.6468 431.718 74.3366 431.718 73.9673C431.718 73.6548 431.598 73.3968 431.356 73.1932C431.119 72.9896 430.75 72.8333 430.248 72.7244L428.387 72.3338C427.341 72.116 426.567 71.7491 426.065 71.233C425.563 70.7121 425.315 70.054 425.319 69.2585C425.315 68.5862 425.497 68.0038 425.866 67.5114C426.24 67.0142 426.759 66.6307 427.422 66.3608C428.089 66.0862 428.859 65.9489 429.73 65.9489C431.008 65.9489 432.014 66.2211 432.748 66.7656C433.487 67.3101 433.944 68.0464 434.119 68.9744ZM438.057 77.1562C437.626 77.1562 437.257 77.0047 436.949 76.7017C436.641 76.3987 436.49 76.0294 436.495 75.5938C436.49 75.1676 436.641 74.803 436.949 74.5C437.257 74.197 437.626 74.0455 438.057 74.0455C438.474 74.0455 438.836 74.197 439.144 74.5C439.456 74.803 439.615 75.1676 439.62 75.5938C439.615 75.8826 439.539 76.1454 439.392 76.3821C439.25 76.6188 439.061 76.8082 438.824 76.9503C438.592 77.0876 438.337 77.1562 438.057 77.1562Z" fill="#D4D4D4"/>
<defs>
<linearGradient id="paint0_linear_99_14" x1="57" y1="10" x2="106.5" y2="103.5" gradientUnits="userSpaceOnUse">
<stop stop-color="#4998FF"/>
<stop offset="1" stop-color="#53DDFC"/>
</linearGradient>
</defs>
</svg>
